<svg xmlns="http://www.w3.org/2000/svg" width="2000" height="2000" enable-background="new 0 0 2000 2000" viewBox="0 0 2000 2000"><path d="M944.9053,478.9932H432.71c-16.5684,0-30,13.4316-30,30v309.1709c0,16.5684,13.4316,30,30,30h512.1953
		c16.5684,0,30-13.4316,30-30V508.9932C974.9053,492.4248,961.4736,478.9932,944.9053,478.9932z M914.9053,788.1641H462.71V538.9932
		h452.1953V788.1641z"/><path d="M1790.2305,714.9229l-173.2344-2.2441c-0.1328-0.002-0.2646-0.0029-0.3965-0.0029c-3.0713,0-6.0371,0.4629-8.8311,1.3242
		c-1.7715-0.1191-3.5508-0.2012-5.3438-0.2012c-20.7119,0-40.1602,7.9902-54.7646,22.501l-45.3672,45.0908
		c-14.6514,14.5605-22.7217,33.9824-22.7207,54.6875c0,20.7051,8.0703,40.126,22.7197,54.6846l10.4521,10.3877
		c6.0352,5.998,12.9072,10.8613,20.3467,14.5273v525.7334c0,31.0264-25.2422,56.2686-56.2695,56.2686H1396.29
		c-31.0283,0-56.2695-25.2422-56.2695-56.2686V1088.502c0-29.5039-9.0859-57.6201-25.5859-79.166
		c-18.0547-23.5801-43.7402-37.1035-70.4707-37.1035h-46.4971v-61.4854c0-16.5684-13.4316-30-30-30h-76.4502V468.0313
		c0-50.874-19.9316-98.8223-56.1221-135.0117c-36.1885-36.1895-84.1367-56.1191-135.0088-56.1191H477.7324
		c-50.874,0-98.8223,19.9297-135.0117,56.1191s-56.1201,84.1377-56.1201,135.0117v1063.6152h-76.4443c-16.5684,0-30,13.4316-30,30
		v131.4531c0,16.5684,13.4316,30,30,30h957.3105c16.5684,0,30-13.4316,30-30v-131.4531c0-16.5684-13.4316-30-30-30h-76.4502
		v-408.5781h76.4502c16.5684,0,30-13.4316,30-30v-60.8359h46.4971c17.0547,0,36.0566,23.1094,36.0566,56.2695v352.9092
		c0,64.1104,52.1572,116.2686,116.2695,116.2686h80.5313c64.1113,0,116.2695-52.1582,116.2695-116.2686V919.373
		c10.8643-3.7578,20.8154-9.917,29.1738-18.2246l45.3662-45.0918c14.6494-14.5596,22.7168-33.9814,22.7168-54.6855
		c0-9.6729-1.7822-19.0566-5.1523-27.8047l104.2578,1.3516c0.1328,0.001,0.2646,0.002,0.3965,0.002
		c16.3867,0,29.7773-13.1768,29.9893-29.6113C1820.0537,728.7412,1806.7979,715.1367,1790.2305,714.9229z M1137.4668,1663.0996
		H240.1563v-71.4531h897.3105V1663.0996z M346.6006,1531.6465V468.0313c0-72.3057,58.8252-131.1309,131.1318-131.1309h422.1533
		c72.3057,0,131.1309,58.8252,131.1309,131.1309v442.7158v182.3213v438.5781H346.6006z M1137.4668,1063.0684h-46.4502V940.7471
		h46.4502V1063.0684z M1625.335,813.502l-45.3672,45.0918c-3.2813,3.2607-7.707,5.0576-12.4629,5.0576
		c-4.7568,0-9.1855-1.7969-12.4658-5.0576l-10.4521-10.3896c-3.2334-3.2129-5.0146-7.5195-5.0146-12.126
		c-0.001-4.6084,1.7813-8.915,5.0166-12.1299l45.3652-45.0898c3.2842-3.2627,7.7129-5.0596,12.4707-5.0596
		c4.7559,0,9.1826,1.7959,12.4609,5.0537l10.4492,10.3877c3.2324,3.2139,5.0127,7.5225,5.0127,12.1309
		S1628.5674,810.2881,1625.335,813.502z"/></svg>